<svg width="42" height="42" fill="none" xmlns="http://www.w3.org/2000/svg"><rect width="42" height="42" rx="14" fill="url(#a)" fill-opacity=".15"/><path fill-rule="evenodd" clip-rule="evenodd" d="M16.396 10.375a6.023 6.023 0 0 0-6.021 6.02v1.56h7.792a4.603 4.603 0 0 0 4.604-4.605v-2.975h-6.375Zm0-2.125a8.148 8.148 0 0 0-8.146 8.146v9.208a8.148 8.148 0 0 0 8.146 8.146h9.208a8.148 8.148 0 0 0 8.146-8.146v-9.208a8.148 8.148 0 0 0-8.146-8.146h-9.208Zm8.5 2.125v2.975a6.728 6.728 0 0 1-6.73 6.73h-7.791v5.524a6.023 6.023 0 0 0 6.02 6.021h.71V28.65a6.728 6.728 0 0 1 6.728-6.73h7.792v-5.524a6.023 6.023 0 0 0-6.02-6.021h-.71Zm6.729 13.67h-7.792a4.603 4.603 0 0 0-4.604 4.605v2.975h6.375a6.023 6.023 0 0 0 6.021-6.02v-1.56Z" fill="url(#b)"/><defs><linearGradient id="a" x1="-.412" y1="-.412" x2="42.412" y2="42.412" gradientUnits="userSpaceOnUse"><stop stop-color="#6763FF"/><stop offset=".5" stop-color="#7E4FE8"/><stop offset="1" stop-color="#B857FF"/></linearGradient><linearGradient id="b" x1="8" y1="8" x2="34" y2="34" gradientUnits="userSpaceOnUse"><stop stop-color="#6763FF"/><stop offset=".5" stop-color="#7E4FE8"/><stop offset="1" stop-color="#B857FF"/></linearGradient></defs></svg>
